<svg width="75" height="69" viewBox="0 0 75 69" fill="none" xmlns="http://www.w3.org/2000/svg">
<g id="Frame" clip-path="url(#clip0_747_1468)">
<path id="Vector" d="M37.4709 68.9841C28.7554 68.9841 20.0233 68.9841 11.316 68.9841C6.8212 68.9841 3.24859 67.3304 1.09672 63.1962C0.396038 61.9284 0.0194013 60.5087 0 59.062C0 46.3617 0 33.6614 0 20.9528C0 15.8512 4.48654 11.411 9.65437 11.1878C11.0371 11.084 12.4258 11.084 13.8086 11.1878C15.6447 11.3862 16.434 10.5594 16.8245 8.90569C17.1871 7.43729 17.6337 5.9907 18.1622 4.57302C19.1592 1.74522 21.2114 0.108075 24.219 0.0832696C33.0813 0.00609764 41.9436 0.00609764 50.8059 0.0832696C53.8053 0.0832696 55.8325 1.80311 56.8378 4.61438C57.4111 6.26806 57.9345 7.87214 58.3749 9.52582C58.4061 9.78246 58.4893 10.0301 58.6195 10.2538C58.7497 10.4775 58.9242 10.6726 59.1323 10.8272C59.3405 10.9818 59.5781 11.0928 59.8306 11.1533C60.0832 11.2139 60.3454 11.2228 60.6015 11.1795C61.9143 11.1051 63.227 11.1795 64.5397 11.1795C70.6381 11.287 74.9751 15.6114 74.9834 21.6391C74.9834 33.7275 74.9834 45.8132 74.9834 57.8961C74.9834 64.6183 70.663 68.9675 63.8252 69.0089C55.0515 69.0254 46.2612 68.9841 37.4709 68.9841ZM23.787 38.0188C23.2054 44.369 28.9382 51.8105 37.4377 51.8601C45.9372 51.9097 51.562 44.4186 51.3044 38.1594C51.0386 30.4119 45.2725 24.4669 37.4792 24.4751C35.6808 24.4486 33.8951 24.7802 32.2273 25.4504C30.5595 26.1206 29.0432 27.1159 27.7675 28.3777C26.4918 29.6396 25.4825 31.1426 24.7989 32.7982C24.1153 34.4539 23.7713 36.2289 23.787 38.0188Z" fill="black"/>
<path id="Vector_2" d="M37.5545 29.6992C39.8251 29.7313 41.9937 30.6432 43.5994 32.2412C45.2051 33.8392 46.1214 35.9974 46.1536 38.2571C46.1536 42.6311 41.9994 46.633 37.5378 46.6743C33.0762 46.7157 28.7891 42.5401 28.8473 38.1413C28.9016 35.8806 29.8433 33.7311 31.4709 32.1531C33.0984 30.5751 35.2822 29.6943 37.5545 29.6992Z" fill="black"/>
</g>
<defs>
<clipPath id="clip0_747_1468">
<rect width="75" height="69" fill="white"/>
</clipPath>
</defs>
</svg>
