<svg width="75" height="69" viewBox="0 0 75 69" fill="none" xmlns="http://www.w3.org/2000/svg">
<g id="Frame" clip-path="url(#clip0_738_220)">
<path id="Vector" d="M37.4709 68.9831C28.7554 68.9831 20.0233 68.9831 11.316 68.9831C6.8212 68.9831 3.24859 67.3294 1.09672 63.1952C0.396038 61.9275 0.0194013 60.5077 0 59.061C0 46.3607 0 33.6604 0 20.9518C0 15.8502 4.48654 11.41 9.65437 11.1868C11.0371 11.083 12.4258 11.083 13.8086 11.1868C15.6447 11.3852 16.434 10.5584 16.8245 8.90471C17.1871 7.43631 17.6337 5.98972 18.1622 4.57204C19.1592 1.74424 21.2114 0.107098 24.219 0.082293C33.0813 0.00512107 41.9436 0.00512107 50.8059 0.082293C53.8053 0.082293 55.8325 1.80213 56.8378 4.6134C57.4111 6.26708 57.9345 7.87116 58.3749 9.52484C58.4061 9.78149 58.4893 10.0292 58.6195 10.2528C58.7497 10.4765 58.9242 10.6716 59.1323 10.8262C59.3405 10.9808 59.5781 11.0918 59.8306 11.1523C60.0832 11.2129 60.3454 11.2218 60.6015 11.1785C61.9143 11.1041 63.227 11.1785 64.5397 11.1785C70.6381 11.286 74.9751 15.6104 74.9834 21.6381C74.9834 33.7265 74.9834 45.8122 74.9834 57.8951C74.9834 64.6174 70.663 68.9665 63.8252 69.0079C55.0515 69.0244 46.2612 68.9831 37.4709 68.9831ZM23.787 38.0178C23.2054 44.368 28.9382 51.8096 37.4377 51.8592C45.9372 51.9088 51.562 44.4176 51.3044 38.1584C51.0386 30.4109 45.2725 24.4659 37.4792 24.4741C35.6808 24.4476 33.8951 24.7792 32.2273 25.4494C30.5595 26.1196 29.0432 27.1149 27.7675 28.3768C26.4918 29.6386 25.4825 31.1416 24.7989 32.7972C24.1153 34.4529 23.7713 36.2279 23.787 38.0178Z" fill="#A45A04"/>
<path id="Vector_2" d="M37.5545 29.7002C39.8251 29.7323 41.9937 30.6442 43.5994 32.2422C45.2051 33.8402 46.1214 35.9983 46.1536 38.258C46.1536 42.632 41.9994 46.6339 37.5378 46.6753C33.0762 46.7166 28.7891 42.5411 28.8473 38.1423C28.9016 35.8816 29.8433 33.732 31.4709 32.1541C33.0984 30.5761 35.2822 29.6952 37.5545 29.7002Z" fill="#A45A04"/>
</g>
<defs>
<clipPath id="clip0_738_220">
<rect width="75" height="69" fill="white"/>
</clipPath>
</defs>
</svg>
