<svg width="464" height="463" viewBox="0 0 464 463" fill="none" xmlns="http://www.w3.org/2000/svg">
<circle cx="236" cy="235" r="226.5" stroke="#FFDBC9" stroke-width="3"/>
<path fill-rule="evenodd" clip-rule="evenodd" d="M120 56.5566C61.6 94.6554 23 160.57 23 235.5C23 353.412 118.587 449 236.5 449C354.413 449 450 353.412 450 235.5C450 160.143 410.959 93.9047 352 55.9082V61.8871C408.064 99.2598 445 163.066 445 235.5C445 350.651 351.651 444 236.5 444C121.349 444 28 350.651 28 235.5C28 163.498 64.4969 100.02 120 62.5579V56.5566Z" fill="#FAE9E1"/>
<path fill-rule="evenodd" clip-rule="evenodd" d="M370 373.9C406.376 338.799 429 289.542 429 235C429 128.409 342.591 42 236 42C129.409 42 43 128.409 43 235C43 290.04 66.0394 339.698 103 374.858V378.97C64.2585 343.163 40 291.914 40 235C40 126.752 127.752 39 236 39C344.248 39 432 126.752 432 235C432 291.423 408.158 342.278 370 378.039V373.9Z" fill="#FAE9E1"/>
<path fill-rule="evenodd" clip-rule="evenodd" d="M401.216 277.042C411.645 234.172 405.37 187.291 379.982 147.02C330.233 68.1085 225.932 44.4674 147.02 94.2165C68.1084 143.966 44.4673 248.266 94.2164 327.178C119.838 367.818 159.928 393.799 203.567 402.645L205.763 406.127C160.27 397.682 118.3 371.005 91.6787 328.778C41.0459 248.464 65.1069 142.311 145.42 91.6788C225.734 41.046 331.887 65.107 382.52 145.421C408.911 187.283 415.01 236.166 403.426 280.548L401.216 277.042Z" fill="#FFE3D5"/>
<path fill-rule="evenodd" clip-rule="evenodd" d="M106.96 202.64C97.2834 237.105 100.969 275.29 120.282 308.741C158.313 374.613 242.543 397.182 308.415 359.151C374.286 321.12 396.856 236.89 358.825 171.018C339.332 137.256 307.702 114.869 272.629 106.187L270.567 102.616C307.51 110.973 340.991 134.13 361.423 169.518C400.282 236.825 377.221 322.89 309.915 361.749C242.608 400.609 156.543 377.548 117.684 310.241C97.4284 275.158 93.9965 234.979 104.885 199.044L106.96 202.64Z" fill="#FAE9E1"/>
</svg>
