<svg width="22" height="22" viewBox="0 0 22 22" fill="none" xmlns="http://www.w3.org/2000/svg">
<g id="Group 708">
<g id="Group 705">
<circle id="Ellipse 21" cx="11" cy="11" r="10.5" stroke="#A45A04"/>
</g>
<path id="Arrow 1" d="M11.5 7C11.5 6.72386 11.2761 6.5 11 6.5C10.7239 6.5 10.5 6.72386 10.5 7L11.5 7ZM10.6464 14.3536C10.8417 14.5488 11.1583 14.5488 11.3536 14.3536L14.5355 11.1716C14.7308 10.9763 14.7308 10.6597 14.5355 10.4645C14.3403 10.2692 14.0237 10.2692 13.8284 10.4645L11 13.2929L8.17157 10.4645C7.97631 10.2692 7.65973 10.2692 7.46447 10.4645C7.2692 10.6597 7.2692 10.9763 7.46447 11.1716L10.6464 14.3536ZM10.5 7L10.5 14L11.5 14L11.5 7L10.5 7Z" fill="#A45A04"/>
</g>
</svg>
