<svg width="59" height="59" viewBox="0 0 59 59" fill="none" xmlns="http://www.w3.org/2000/svg">
<circle cx="29.5" cy="29.5" r="29.5" fill="#F5D1C0"/>
<path d="M18.0678 33.1922C18.0678 30.783 18.0507 28.3738 18.0773 25.9651C18.0863 25.1335 18.1603 24.296 18.286 23.4734C18.4191 22.598 18.7359 21.767 19.1253 20.9667C19.823 19.5327 20.8039 18.3299 22.0867 17.3755C22.9245 16.7517 23.8585 16.3099 24.8454 15.9669C25.9865 15.5692 27.1597 15.4067 28.3649 15.4102C30.557 15.4157 32.7492 15.4082 34.9414 15.4082C36.8668 15.4082 38.7921 15.4157 40.7175 15.4112C41.8572 15.4087 42.6835 15.947 43.217 16.9018C43.9848 18.2772 43.5658 20.1362 42.0328 20.9628C41.6605 21.1636 41.2461 21.2471 40.8141 21.2471C36.8958 21.2436 32.9779 21.2401 29.0596 21.2461C27.4335 21.2486 26.0571 21.8271 25.0036 23.0797C24.5441 23.626 24.2533 24.2607 24.0586 24.9506C23.8575 25.6629 23.863 26.3831 23.863 27.1068C23.863 31.9749 23.864 36.843 23.8665 41.7112C23.8665 42.6083 23.5952 43.3852 22.8975 43.9916C21.3575 45.3302 18.783 44.7844 18.1443 42.6695C18.0527 42.3668 18.0432 42.0313 18.0427 41.7107C18.0357 38.8715 18.0387 36.0319 18.0387 33.1922C18.0482 33.1922 18.0582 33.1922 18.0678 33.1922Z" fill="#A45A04"/>
<path d="M33.9799 34.6933C33.4214 34.6933 32.8633 34.6983 32.3048 34.6923C31.2247 34.6804 30.3944 34.237 29.8804 33.2742C29.1296 31.8685 29.7432 29.9877 31.2337 29.3753C31.575 29.2352 31.9659 29.1616 32.3358 29.1532C33.5685 29.1263 34.8022 29.1333 36.0354 29.1462C37.0369 29.1566 38.0239 29.9758 38.3217 30.8759C38.4478 31.2577 38.5249 31.6792 38.5114 32.0788C38.4753 33.1325 37.7691 34.1699 36.652 34.5288C36.1601 34.6868 35.6601 34.6968 35.1551 34.6978C34.7632 34.6983 34.3718 34.6978 33.9799 34.6978V34.6933Z" fill="#A45A04"/>
</svg>
